<svg xmlns="http://www.w3.org/2000/svg" xmlns:xlink="http://www.w3.org/1999/xlink" width="384px" height="504px" version="1.1"><defs/><g transform="translate(0.5,0.5)"><ellipse cx="298" cy="86" rx="83.75" ry="84.75" fill="#ffffff" stroke="#000000" stroke-width="2" pointer-events="none"/><g fill="#000000" font-family="Helvetica" text-anchor="middle" font-size="12px"><text x="298" y="41">Index.html with</text><text x="298" y="55">event listener</text><text x="298" y="69">attached to a</text><text x="298" y="83">new eventSource</text><text x="298" y="97">sending a request to the </text><text x="298" y="111">server to establish a </text><text x="298" y="125">text/event-stream</text><text x="298" y="139">connection</text></g><ellipse cx="157" cy="206" rx="25" ry="25" fill="#ffffff" stroke="#000000" pointer-events="none"/><ellipse cx="157" cy="206" rx="22" ry="22" fill="none" stroke="#000000" pointer-events="none"/><rect x="140" y="196" width="35" height="20" fill="#000000" stroke="#ffffff" pointer-events="none"/><path d="M 140 196 L 157 206 L 175 196" fill="none" stroke="#ffffff" stroke-miterlimit="10" pointer-events="none"/><g fill="#000000" font-family="Helvetica" text-anchor="middle" font-size="12px"><text x="157" y="249">Corresponding events</text><text x="157" y="263">sent back to DOM</text><text x="157" y="277">as a javascript object</text></g><path d="M 163 324 L 163 301 L 154 301 L 174 280 L 193 301 L 184 301 L 184 324 L 204 324 L 204 314 L 223 335 L 204 356 L 204 346 L 163 346 L 143 346 L 143 356 L 123 335 L 143 314 L 143 324 Z" fill="#ffffff" stroke="#000000" stroke-width="2" stroke-miterlimit="10" transform="rotate(-30,173,318)" pointer-events="none"/><path d="M 199 194 L 199 156 L 192 156 L 205 131 L 217 156 L 210 156 L 210 194 Z" fill="#ffffff" stroke="#000000" stroke-width="2" stroke-miterlimit="10" transform="rotate(45,205,162)" pointer-events="none"/><image x="234" y="216" width="128" height="128" xlink:href="https://cdn2.iconfinder.com/data/icons/flat-style-svg-icons-part-1/512/open_folder_blue-128.png" preserveAspectRatio="none" pointer-events="none"/><g fill="#000000" font-family="Helvetica" text-anchor="middle" font-size="12px"><text x="298" y="362">Tracked Directory/Path (local)</text><text x="298" y="376">Where user changes happen</text></g><image x="4" y="311" width="128" height="128" xlink:href="https://cdn2.iconfinder.com/data/icons/webdev-round-pack/512/setting-128.png" preserveAspectRatio="none" pointer-events="none"/><g fill="#000000" font-family="Helvetica" text-anchor="middle" font-size="12px"><text x="68" y="457">app.js (express API)</text><text x="68" y="471">using a node fs.watch</text><text x="68" y="485">to listen for changes</text><text x="68" y="499">in tracked directory</text></g><path d="M 144 268 L 144 174 C 144 169 138 165 131 165 L 68 165 L 68 190 L -29 136 L 68 83 L 68 108 L 131 108 C 179 109 218 138 218 174 L 218 268 Z" fill="#ffffff" stroke="#000000" stroke-width="2" stroke-miterlimit="10" transform="rotate(-90,94,175)" pointer-events="none"/></g></svg>